<svg xmlns="http://www.w3.org/2000/svg" viewBox="0 0 1200 900" preserveAspectRatio="xMidYMid slice" width="1200" height="900"><rect width="1200" height="900" fill="#f7f9fb"/><path d="M-110.0 0.0 L-55.0 75.0 L0.0 0.0 Z" fill="#e6ebf2" stroke="#dde4ec" stroke-width="1" stroke-linejoin="round"/><path d="M0.0 0.0 L-55.0 75.0 L55.4 61.2 Z" fill="#e6ebf2" stroke="#dde4ec" stroke-width="1" stroke-linejoin="round"/><path d="M0.0 0.0 L55.4 61.2 L120.0 0.0 Z" fill="#e6ebf2" stroke="#dde4ec" stroke-width="1" stroke-linejoin="round"/><path d="M120.0 0.0 L55.4 61.2 L143.3 106.1 Z" fill="#e6ebf2" stroke="#dde4ec" stroke-width="1" stroke-linejoin="round"/><path d="M120.0 0.0 L143.3 106.1 L185.8 0.0 Z" fill="#e6ebf2" stroke="#c8d2dc" stroke-width="1" stroke-linejoin="round"/><path d="M185.8 0.0 L143.3 106.1 L278.2 75.1 Z" fill="#e6ebf2" stroke="#dde4ec" stroke-width="1" stroke-linejoin="round"/><path d="M185.8 0.0 L278.2 75.1 L313.8 0.0 Z" fill="#e6ebf2" stroke="#c8d2dc" stroke-width="1" stroke-linejoin="round"/><path d="M313.8 0.0 L278.2 75.1 L391.4 117.5 Z" fill="#e6ebf2" stroke="#c8d2dc" stroke-width="1" stroke-linejoin="round"/><path d="M313.8 0.0 L391.4 117.5 L420.1 0.0 Z" fill="#e6ebf2" stroke="#dde4ec" stroke-width="1" stroke-linejoin="round"/><path d="M420.1 0.0 L391.4 117.5 L459.5 117.3 Z" fill="#e6ebf2" stroke="#dde4ec" stroke-width="1" stroke-linejoin="round"/><path d="M420.1 0.0 L459.5 117.3 L567.0 0.0 Z" fill="#e6ebf2" stroke="#dde4ec" stroke-width="1" stroke-linejoin="round"/><path d="M567.0 0.0 L459.5 117.3 L619.3 83.8 Z" fill="#e6ebf2" stroke="#dde4ec" stroke-width="1" stroke-linejoin="round"/><path d="M567.0 0.0 L619.3 83.8 L672.7 0.0 Z" fill="#e6ebf2" stroke="#c8d2dc" stroke-width="1" stroke-linejoin="round"/><path d="M672.7 0.0 L619.3 83.8 L690.2 128.2 Z" fill="#f1f4f8" stroke="#c8d2dc" stroke-width="1" stroke-linejoin="round"/><path d="M672.7 0.0 L690.2 128.2 L798.2 0.0 Z" fill="#e6ebf2" stroke="#dde4ec" stroke-width="1" stroke-linejoin="round"/><path d="M798.2 0.0 L690.2 128.2 L813.2 65.9 Z" fill="#e6ebf2" stroke="#c8d2dc" stroke-width="1" stroke-linejoin="round"/><path d="M798.2 0.0 L813.2 65.9 L850.3 0.0 Z" fill="#e6ebf2" stroke="#dde4ec" stroke-width="1" stroke-linejoin="round"/><path d="M850.3 0.0 L813.2 65.9 L906.0 120.3 Z" fill="#e6ebf2" stroke="#c8d2dc" stroke-width="1" stroke-linejoin="round"/><path d="M850.3 0.0 L906.0 120.3 L984.4 0.0 Z" fill="#e6ebf2" stroke="#dde4ec" stroke-width="1" stroke-linejoin="round"/><path d="M984.4 0.0 L906.0 120.3 L1052.5 117.4 Z" fill="#e6ebf2" stroke="#dde4ec" stroke-width="1" stroke-linejoin="round"/><path d="M984.4 0.0 L1052.5 117.4 L1066.1 0.0 Z" fill="#e6ebf2" stroke="#c8d2dc" stroke-width="1" stroke-linejoin="round"/><path d="M1066.1 0.0 L1052.5 117.4 L1171.5 97.9 Z" fill="#e6ebf2" stroke="#dde4ec" stroke-width="1" stroke-linejoin="round"/><path d="M1066.1 0.0 L1171.5 97.9 L1210.0 0.0 Z" fill="#e6ebf2" stroke="#dde4ec" stroke-width="1" stroke-linejoin="round"/><path d="M1210.0 0.0 L1171.5 97.9 L1265.0 129.3 Z" fill="#e6ebf2" stroke="#c8d2dc" stroke-width="1" stroke-linejoin="round"/><path d="M-55.0 75.0 L-110.0 181.8 L0.0 194.3 Z" fill="#e6ebf2" stroke="#c8d2dc" stroke-width="1" stroke-linejoin="round"/><path d="M-55.0 75.0 L0.0 194.3 L55.4 61.2 Z" fill="#e6ebf2" stroke="#dde4ec" stroke-width="1" stroke-linejoin="round"/><path d="M55.4 61.2 L0.0 194.3 L133.7 199.1 Z" fill="#e6ebf2" stroke="#c8d2dc" stroke-width="1" stroke-linejoin="round"/><path d="M55.4 61.2 L133.7 199.1 L143.3 106.1 Z" fill="#e6ebf2" stroke="#dde4ec" stroke-width="1" stroke-linejoin="round"/><path d="M143.3 106.1 L133.7 199.1 L246.0 196.1 Z" fill="#e6ebf2" stroke="#dde4ec" stroke-width="1" stroke-linejoin="round"/><path d="M143.3 106.1 L246.0 196.1 L278.2 75.1 Z" fill="#e6ebf2" stroke="#c8d2dc" stroke-width="1" stroke-linejoin="round"/><path d="M278.2 75.1 L246.0 196.1 L344.7 157.8 Z" fill="#e6ebf2" stroke="#c8d2dc" stroke-width="1" stroke-linejoin="round"/><path d="M278.2 75.1 L344.7 157.8 L391.4 117.5 Z" fill="#e6ebf2" stroke="#dde4ec" stroke-width="1" stroke-linejoin="round"/><path d="M391.4 117.5 L344.7 157.8 L420.4 175.4 Z" fill="#e6ebf2" stroke="#c8d2dc" stroke-width="1" stroke-linejoin="round"/><path d="M391.4 117.5 L420.4 175.4 L459.5 117.3 Z" fill="#f1f4f8" stroke="#c8d2dc" stroke-width="1" stroke-linejoin="round"/><path d="M459.5 117.3 L420.4 175.4 L519.7 171.3 Z" fill="#f1f4f8" stroke="#dde4ec" stroke-width="1" stroke-linejoin="round"/><path d="M459.5 117.3 L519.7 171.3 L619.3 83.8 Z" fill="#f1f4f8" stroke="#c8d2dc" stroke-width="1" stroke-linejoin="round"/><path d="M619.3 83.8 L519.7 171.3 L631.3 174.5 Z" fill="#e6ebf2" stroke="#dde4ec" stroke-width="1" stroke-linejoin="round"/><path d="M619.3 83.8 L631.3 174.5 L690.2 128.2 Z" fill="#f1f4f8" stroke="#c8d2dc" stroke-width="1" stroke-linejoin="round"/><path d="M690.2 128.2 L631.3 174.5 L779.8 180.8 Z" fill="#f1f4f8" stroke="#dde4ec" stroke-width="1" stroke-linejoin="round"/><path d="M690.2 128.2 L779.8 180.8 L813.2 65.9 Z" fill="#e6ebf2" stroke="#c8d2dc" stroke-width="1" stroke-linejoin="round"/><path d="M813.2 65.9 L779.8 180.8 L870.7 169.6 Z" fill="#e6ebf2" stroke="#dde4ec" stroke-width="1" stroke-linejoin="round"/><path d="M813.2 65.9 L870.7 169.6 L906.0 120.3 Z" fill="#e6ebf2" stroke="#c8d2dc" stroke-width="1" stroke-linejoin="round"/><path d="M906.0 120.3 L870.7 169.6 L973.2 222.0 Z" fill="#f1f4f8" stroke="#dde4ec" stroke-width="1" stroke-linejoin="round"/><path d="M906.0 120.3 L973.2 222.0 L1052.5 117.4 Z" fill="#e6ebf2" stroke="#dde4ec" stroke-width="1" stroke-linejoin="round"/><path d="M1052.5 117.4 L973.2 222.0 L1110.7 198.4 Z" fill="#e6ebf2" stroke="#c8d2dc" stroke-width="1" stroke-linejoin="round"/><path d="M1052.5 117.4 L1110.7 198.4 L1171.5 97.9 Z" fill="#e6ebf2" stroke="#c8d2dc" stroke-width="1" stroke-linejoin="round"/><path d="M1171.5 97.9 L1110.7 198.4 L1210.0 166.8 Z" fill="#e6ebf2" stroke="#dde4ec" stroke-width="1" stroke-linejoin="round"/><path d="M1171.5 97.9 L1210.0 166.8 L1265.0 129.3 Z" fill="#e6ebf2" stroke="#dde4ec" stroke-width="1" stroke-linejoin="round"/><path d="M-110.0 181.8 L-55.0 302.3 L0.0 194.3 Z" fill="#e6ebf2" stroke="#dde4ec" stroke-width="1" stroke-linejoin="round"/><path d="M0.0 194.3 L-55.0 302.3 L30.8 277.1 Z" fill="#e6ebf2" stroke="#dde4ec" stroke-width="1" stroke-linejoin="round"/><path d="M0.0 194.3 L30.8 277.1 L133.7 199.1 Z" fill="#e6ebf2" stroke="#dde4ec" stroke-width="1" stroke-linejoin="round"/><path d="M133.7 199.1 L30.8 277.1 L200.2 295.9 Z" fill="#e6ebf2" stroke="#dde4ec" stroke-width="1" stroke-linejoin="round"/><path d="M133.7 199.1 L200.2 295.9 L246.0 196.1 Z" fill="#f1f4f8" stroke="#dde4ec" stroke-width="1" stroke-linejoin="round"/><path d="M246.0 196.1 L200.2 295.9 L279.1 299.1 Z" fill="#e6ebf2" stroke="#dde4ec" stroke-width="1" stroke-linejoin="round"/><path d="M246.0 196.1 L279.1 299.1 L344.7 157.8 Z" fill="#e6ebf2" stroke="#c8d2dc" stroke-width="1" stroke-linejoin="round"/><path d="M344.7 157.8 L279.1 299.1 L409.7 305.7 Z" fill="#e6ebf2" stroke="#c8d2dc" stroke-width="1" stroke-linejoin="round"/><path d="M344.7 157.8 L409.7 305.7 L420.4 175.4 Z" fill="#e6ebf2" stroke="#dde4ec" stroke-width="1" stroke-linejoin="round"/><path d="M420.4 175.4 L409.7 305.7 L475.5 252.1 Z" fill="#f7f9fb" stroke="#dde4ec" stroke-width="1" stroke-linejoin="round"/><path d="M420.4 175.4 L475.5 252.1 L519.7 171.3 Z" fill="#f1f4f8" stroke="#c8d2dc" stroke-width="1" stroke-linejoin="round"/><path d="M519.7 171.3 L475.5 252.1 L591.7 269.1 Z" fill="#f1f4f8" stroke="#c8d2dc" stroke-width="1" stroke-linejoin="round"/><path d="M519.7 171.3 L591.7 269.1 L631.3 174.5 Z" fill="#f7f9fb" stroke="#c8d2dc" stroke-width="1" stroke-linejoin="round"/><path d="M631.3 174.5 L591.7 269.1 L694.2 317.7 Z" fill="#f7f9fb" stroke="#dde4ec" stroke-width="1" stroke-linejoin="round"/><path d="M631.3 174.5 L694.2 317.7 L779.8 180.8 Z" fill="#f1f4f8" stroke="#c8d2dc" stroke-width="1" stroke-linejoin="round"/><path d="M779.8 180.8 L694.2 317.7 L852.1 272.4 Z" fill="#f1f4f8" stroke="#c8d2dc" stroke-width="1" stroke-linejoin="round"/><path d="M779.8 180.8 L852.1 272.4 L870.7 169.6 Z" fill="#e6ebf2" stroke="#c8d2dc" stroke-width="1" stroke-linejoin="round"/><path d="M870.7 169.6 L852.1 272.4 L946.2 278.3 Z" fill="#e6ebf2" stroke="#c8d2dc" stroke-width="1" stroke-linejoin="round"/><path d="M870.7 169.6 L946.2 278.3 L973.2 222.0 Z" fill="#e6ebf2" stroke="#c8d2dc" stroke-width="1" stroke-linejoin="round"/><path d="M973.2 222.0 L946.2 278.3 L1074.8 282.8 Z" fill="#e6ebf2" stroke="#c8d2dc" stroke-width="1" stroke-linejoin="round"/><path d="M973.2 222.0 L1074.8 282.8 L1110.7 198.4 Z" fill="#e6ebf2" stroke="#c8d2dc" stroke-width="1" stroke-linejoin="round"/><path d="M1110.7 198.4 L1074.8 282.8 L1138.1 267.5 Z" fill="#e6ebf2" stroke="#c8d2dc" stroke-width="1" stroke-linejoin="round"/><path d="M1110.7 198.4 L1138.1 267.5 L1210.0 166.8 Z" fill="#e6ebf2" stroke="#c8d2dc" stroke-width="1" stroke-linejoin="round"/><path d="M1210.0 166.8 L1138.1 267.5 L1265.0 290.2 Z" fill="#e6ebf2" stroke="#dde4ec" stroke-width="1" stroke-linejoin="round"/><path d="M-55.0 302.3 L-110.0 364.0 L0.0 387.1 Z" fill="#e6ebf2" stroke="#dde4ec" stroke-width="1" stroke-linejoin="round"/><path d="M-55.0 302.3 L0.0 387.1 L30.8 277.1 Z" fill="#e6ebf2" stroke="#dde4ec" stroke-width="1" stroke-linejoin="round"/><path d="M30.8 277.1 L0.0 387.1 L138.6 373.8 Z" fill="#e6ebf2" stroke="#dde4ec" stroke-width="1" stroke-linejoin="round"/><path d="M30.8 277.1 L138.6 373.8 L200.2 295.9 Z" fill="#e6ebf2" stroke="#dde4ec" stroke-width="1" stroke-linejoin="round"/><path d="M200.2 295.9 L138.6 373.8 L199.8 416.9 Z" fill="#f1f4f8" stroke="#c8d2dc" stroke-width="1" stroke-linejoin="round"/><path d="M200.2 295.9 L199.8 416.9 L279.1 299.1 Z" fill="#f1f4f8" stroke="#c8d2dc" stroke-width="1" stroke-linejoin="round"/><path d="M279.1 299.1 L199.8 416.9 L330.7 351.6 Z" fill="#f1f4f8" stroke="#dde4ec" stroke-width="1" stroke-linejoin="round"/><path d="M279.1 299.1 L330.7 351.6 L409.7 305.7 Z" fill="#f1f4f8" stroke="#c8d2dc" stroke-width="1" stroke-linejoin="round"/><path d="M409.7 305.7 L330.7 351.6 L407.4 352.9 Z" fill="#f7f9fb" stroke="#c8d2dc" stroke-width="1" stroke-linejoin="round"/><path d="M409.7 305.7 L407.4 352.9 L475.5 252.1 Z" fill="#f7f9fb" stroke="#c8d2dc" stroke-width="1" stroke-linejoin="round"/><path d="M475.5 252.1 L407.4 352.9 L559.2 402.1 Z" fill="#ffffff" stroke="#c8d2dc" stroke-width="1" stroke-linejoin="round"/><path d="M475.5 252.1 L559.2 402.1 L591.7 269.1 Z" fill="#f1f4f8" stroke="#dde4ec" stroke-width="1" stroke-linejoin="round"/><path d="M591.7 269.1 L559.2 402.1 L654.4 349.6 Z" fill="#f1f4f8" stroke="#dde4ec" stroke-width="1" stroke-linejoin="round"/><path d="M591.7 269.1 L654.4 349.6 L694.2 317.7 Z" fill="#f7f9fb" stroke="#c8d2dc" stroke-width="1" stroke-linejoin="round"/><path d="M694.2 317.7 L654.4 349.6 L761.5 416.8 Z" fill="#ffffff" stroke="#c8d2dc" stroke-width="1" stroke-linejoin="round"/><path d="M694.2 317.7 L761.5 416.8 L852.1 272.4 Z" fill="#f7f9fb" stroke="#dde4ec" stroke-width="1" stroke-linejoin="round"/><path d="M852.1 272.4 L761.5 416.8 L882.1 415.0 Z" fill="#f1f4f8" stroke="#c8d2dc" stroke-width="1" stroke-linejoin="round"/><path d="M852.1 272.4 L882.1 415.0 L946.2 278.3 Z" fill="#f1f4f8" stroke="#c8d2dc" stroke-width="1" stroke-linejoin="round"/><path d="M946.2 278.3 L882.1 415.0 L1016.0 345.9 Z" fill="#f1f4f8" stroke="#dde4ec" stroke-width="1" stroke-linejoin="round"/><path d="M946.2 278.3 L1016.0 345.9 L1074.8 282.8 Z" fill="#e6ebf2" stroke="#c8d2dc" stroke-width="1" stroke-linejoin="round"/><path d="M1074.8 282.8 L1016.0 345.9 L1115.9 394.1 Z" fill="#f1f4f8" stroke="#c8d2dc" stroke-width="1" stroke-linejoin="round"/><path d="M1074.8 282.8 L1115.9 394.1 L1138.1 267.5 Z" fill="#e6ebf2" stroke="#c8d2dc" stroke-width="1" stroke-linejoin="round"/><path d="M1138.1 267.5 L1115.9 394.1 L1210.0 383.7 Z" fill="#e6ebf2" stroke="#dde4ec" stroke-width="1" stroke-linejoin="round"/><path d="M1138.1 267.5 L1210.0 383.7 L1265.0 290.2 Z" fill="#e6ebf2" stroke="#c8d2dc" stroke-width="1" stroke-linejoin="round"/><path d="M-110.0 364.0 L-55.0 459.5 L0.0 387.1 Z" fill="#e6ebf2" stroke="#c8d2dc" stroke-width="1" stroke-linejoin="round"/><path d="M0.0 387.1 L-55.0 459.5 L65.1 448.3 Z" fill="#e6ebf2" stroke="#c8d2dc" stroke-width="1" stroke-linejoin="round"/><path d="M0.0 387.1 L65.1 448.3 L138.6 373.8 Z" fill="#e6ebf2" stroke="#c8d2dc" stroke-width="1" stroke-linejoin="round"/><path d="M138.6 373.8 L65.1 448.3 L160.3 473.0 Z" fill="#f1f4f8" stroke="#dde4ec" stroke-width="1" stroke-linejoin="round"/><path d="M138.6 373.8 L160.3 473.0 L199.8 416.9 Z" fill="#f1f4f8" stroke="#dde4ec" stroke-width="1" stroke-linejoin="round"/><path d="M199.8 416.9 L160.3 473.0 L307.7 503.4 Z" fill="#f1f4f8" stroke="#c8d2dc" stroke-width="1" stroke-linejoin="round"/><path d="M199.8 416.9 L307.7 503.4 L330.7 351.6 Z" fill="#f1f4f8" stroke="#c8d2dc" stroke-width="1" stroke-linejoin="round"/><path d="M330.7 351.6 L307.7 503.4 L368.0 476.4 Z" fill="#f1f4f8" stroke="#dde4ec" stroke-width="1" stroke-linejoin="round"/><path d="M330.7 351.6 L368.0 476.4 L407.4 352.9 Z" fill="#f7f9fb" stroke="#c8d2dc" stroke-width="1" stroke-linejoin="round"/><path d="M407.4 352.9 L368.0 476.4 L471.9 506.0 Z" fill="#ffffff" stroke="#dde4ec" stroke-width="1" stroke-linejoin="round"/><path d="M407.4 352.9 L471.9 506.0 L559.2 402.1 Z" fill="#f7f9fb" stroke="#c8d2dc" stroke-width="1" stroke-linejoin="round"/><path d="M559.2 402.1 L471.9 506.0 L631.7 461.8 Z" fill="#f7f9fb" stroke="#dde4ec" stroke-width="1" stroke-linejoin="round"/><path d="M559.2 402.1 L631.7 461.8 L654.4 349.6 Z" fill="#f7f9fb" stroke="#dde4ec" stroke-width="1" stroke-linejoin="round"/><path d="M654.4 349.6 L631.7 461.8 L725.0 484.2 Z" fill="#f1f4f8" stroke="#dde4ec" stroke-width="1" stroke-linejoin="round"/><path d="M654.4 349.6 L725.0 484.2 L761.5 416.8 Z" fill="#f1f4f8" stroke="#dde4ec" stroke-width="1" stroke-linejoin="round"/><path d="M761.5 416.8 L725.0 484.2 L800.0 495.2 Z" fill="#f1f4f8" stroke="#dde4ec" stroke-width="1" stroke-linejoin="round"/><path d="M761.5 416.8 L800.0 495.2 L882.1 415.0 Z" fill="#f1f4f8" stroke="#c8d2dc" stroke-width="1" stroke-linejoin="round"/><path d="M882.1 415.0 L800.0 495.2 L937.8 496.4 Z" fill="#f1f4f8" stroke="#c8d2dc" stroke-width="1" stroke-linejoin="round"/><path d="M882.1 415.0 L937.8 496.4 L1016.0 345.9 Z" fill="#e6ebf2" stroke="#dde4ec" stroke-width="1" stroke-linejoin="round"/><path d="M1016.0 345.9 L937.8 496.4 L1047.2 440.4 Z" fill="#f1f4f8" stroke="#c8d2dc" stroke-width="1" stroke-linejoin="round"/><path d="M1016.0 345.9 L1047.2 440.4 L1115.9 394.1 Z" fill="#f1f4f8" stroke="#dde4ec" stroke-width="1" stroke-linejoin="round"/><path d="M1115.9 394.1 L1047.2 440.4 L1142.3 441.7 Z" fill="#e6ebf2" stroke="#c8d2dc" stroke-width="1" stroke-linejoin="round"/><path d="M1115.9 394.1 L1142.3 441.7 L1210.0 383.7 Z" fill="#e6ebf2" stroke="#c8d2dc" stroke-width="1" stroke-linejoin="round"/><path d="M1210.0 383.7 L1142.3 441.7 L1265.0 507.2 Z" fill="#e6ebf2" stroke="#c8d2dc" stroke-width="1" stroke-linejoin="round"/><path d="M-55.0 459.5 L-110.0 598.8 L0.0 595.5 Z" fill="#e6ebf2" stroke="#c8d2dc" stroke-width="1" stroke-linejoin="round"/><path d="M-55.0 459.5 L0.0 595.5 L65.1 448.3 Z" fill="#e6ebf2" stroke="#c8d2dc" stroke-width="1" stroke-linejoin="round"/><path d="M65.1 448.3 L0.0 595.5 L96.1 539.7 Z" fill="#e6ebf2" stroke="#dde4ec" stroke-width="1" stroke-linejoin="round"/><path d="M65.1 448.3 L96.1 539.7 L160.3 473.0 Z" fill="#e6ebf2" stroke="#c8d2dc" stroke-width="1" stroke-linejoin="round"/><path d="M160.3 473.0 L96.1 539.7 L247.2 603.8 Z" fill="#f1f4f8" stroke="#c8d2dc" stroke-width="1" stroke-linejoin="round"/><path d="M160.3 473.0 L247.2 603.8 L307.7 503.4 Z" fill="#f1f4f8" stroke="#c8d2dc" stroke-width="1" stroke-linejoin="round"/><path d="M307.7 503.4 L247.2 603.8 L300.2 570.6 Z" fill="#f1f4f8" stroke="#dde4ec" stroke-width="1" stroke-linejoin="round"/><path d="M307.7 503.4 L300.2 570.6 L368.0 476.4 Z" fill="#f1f4f8" stroke="#dde4ec" stroke-width="1" stroke-linejoin="round"/><path d="M368.0 476.4 L300.2 570.6 L409.0 590.3 Z" fill="#f1f4f8" stroke="#dde4ec" stroke-width="1" stroke-linejoin="round"/><path d="M368.0 476.4 L409.0 590.3 L471.9 506.0 Z" fill="#f7f9fb" stroke="#c8d2dc" stroke-width="1" stroke-linejoin="round"/><path d="M471.9 506.0 L409.0 590.3 L569.1 544.8 Z" fill="#f7f9fb" stroke="#dde4ec" stroke-width="1" stroke-linejoin="round"/><path d="M471.9 506.0 L569.1 544.8 L631.7 461.8 Z" fill="#f1f4f8" stroke="#dde4ec" stroke-width="1" stroke-linejoin="round"/><path d="M631.7 461.8 L569.1 544.8 L658.2 575.2 Z" fill="#f7f9fb" stroke="#dde4ec" stroke-width="1" stroke-linejoin="round"/><path d="M631.7 461.8 L658.2 575.2 L725.0 484.2 Z" fill="#f7f9fb" stroke="#dde4ec" stroke-width="1" stroke-linejoin="round"/><path d="M725.0 484.2 L658.2 575.2 L753.1 598.4 Z" fill="#f7f9fb" stroke="#c8d2dc" stroke-width="1" stroke-linejoin="round"/><path d="M725.0 484.2 L753.1 598.4 L800.0 495.2 Z" fill="#f7f9fb" stroke="#c8d2dc" stroke-width="1" stroke-linejoin="round"/><path d="M800.0 495.2 L753.1 598.4 L874.5 550.8 Z" fill="#f7f9fb" stroke="#dde4ec" stroke-width="1" stroke-linejoin="round"/><path d="M800.0 495.2 L874.5 550.8 L937.8 496.4 Z" fill="#f7f9fb" stroke="#c8d2dc" stroke-width="1" stroke-linejoin="round"/><path d="M937.8 496.4 L874.5 550.8 L992.8 588.1 Z" fill="#f1f4f8" stroke="#c8d2dc" stroke-width="1" stroke-linejoin="round"/><path d="M937.8 496.4 L992.8 588.1 L1047.2 440.4 Z" fill="#f1f4f8" stroke="#c8d2dc" stroke-width="1" stroke-linejoin="round"/><path d="M1047.2 440.4 L992.8 588.1 L1078.5 558.0 Z" fill="#f1f4f8" stroke="#dde4ec" stroke-width="1" stroke-linejoin="round"/><path d="M1047.2 440.4 L1078.5 558.0 L1142.3 441.7 Z" fill="#f1f4f8" stroke="#dde4ec" stroke-width="1" stroke-linejoin="round"/><path d="M1142.3 441.7 L1078.5 558.0 L1210.0 607.2 Z" fill="#e6ebf2" stroke="#c8d2dc" stroke-width="1" stroke-linejoin="round"/><path d="M1142.3 441.7 L1210.0 607.2 L1265.0 507.2 Z" fill="#e6ebf2" stroke="#c8d2dc" stroke-width="1" stroke-linejoin="round"/><path d="M-110.0 598.8 L-55.0 677.6 L0.0 595.5 Z" fill="#e6ebf2" stroke="#c8d2dc" stroke-width="1" stroke-linejoin="round"/><path d="M0.0 595.5 L-55.0 677.6 L50.5 668.1 Z" fill="#e6ebf2" stroke="#c8d2dc" stroke-width="1" stroke-linejoin="round"/><path d="M0.0 595.5 L50.5 668.1 L96.1 539.7 Z" fill="#e6ebf2" stroke="#dde4ec" stroke-width="1" stroke-linejoin="round"/><path d="M96.1 539.7 L50.5 668.1 L137.7 647.0 Z" fill="#e6ebf2" stroke="#c8d2dc" stroke-width="1" stroke-linejoin="round"/><path d="M96.1 539.7 L137.7 647.0 L247.2 603.8 Z" fill="#f1f4f8" stroke="#c8d2dc" stroke-width="1" stroke-linejoin="round"/><path d="M247.2 603.8 L137.7 647.0 L263.3 673.2 Z" fill="#e6ebf2" stroke="#c8d2dc" stroke-width="1" stroke-linejoin="round"/><path d="M247.2 603.8 L263.3 673.2 L300.2 570.6 Z" fill="#f1f4f8" stroke="#dde4ec" stroke-width="1" stroke-linejoin="round"/><path d="M300.2 570.6 L263.3 673.2 L365.6 646.7 Z" fill="#f1f4f8" stroke="#dde4ec" stroke-width="1" stroke-linejoin="round"/><path d="M300.2 570.6 L365.6 646.7 L409.0 590.3 Z" fill="#f1f4f8" stroke="#c8d2dc" stroke-width="1" stroke-linejoin="round"/><path d="M409.0 590.3 L365.6 646.7 L464.1 676.3 Z" fill="#f7f9fb" stroke="#c8d2dc" stroke-width="1" stroke-linejoin="round"/><path d="M409.0 590.3 L464.1 676.3 L569.1 544.8 Z" fill="#f7f9fb" stroke="#dde4ec" stroke-width="1" stroke-linejoin="round"/><path d="M569.1 544.8 L464.1 676.3 L585.5 696.0 Z" fill="#f1f4f8" stroke="#c8d2dc" stroke-width="1" stroke-linejoin="round"/><path d="M569.1 544.8 L585.5 696.0 L658.2 575.2 Z" fill="#f1f4f8" stroke="#dde4ec" stroke-width="1" stroke-linejoin="round"/><path d="M658.2 575.2 L585.5 696.0 L740.9 635.9 Z" fill="#f7f9fb" stroke="#dde4ec" stroke-width="1" stroke-linejoin="round"/><path d="M658.2 575.2 L740.9 635.9 L753.1 598.4 Z" fill="#f1f4f8" stroke="#c8d2dc" stroke-width="1" stroke-linejoin="round"/><path d="M753.1 598.4 L740.9 635.9 L806.1 679.0 Z" fill="#f1f4f8" stroke="#dde4ec" stroke-width="1" stroke-linejoin="round"/><path d="M753.1 598.4 L806.1 679.0 L874.5 550.8 Z" fill="#f7f9fb" stroke="#c8d2dc" stroke-width="1" stroke-linejoin="round"/><path d="M874.5 550.8 L806.1 679.0 L914.4 640.4 Z" fill="#f1f4f8" stroke="#dde4ec" stroke-width="1" stroke-linejoin="round"/><path d="M874.5 550.8 L914.4 640.4 L992.8 588.1 Z" fill="#e6ebf2" stroke="#c8d2dc" stroke-width="1" stroke-linejoin="round"/><path d="M992.8 588.1 L914.4 640.4 L1076.4 672.0 Z" fill="#e6ebf2" stroke="#c8d2dc" stroke-width="1" stroke-linejoin="round"/><path d="M992.8 588.1 L1076.4 672.0 L1078.5 558.0 Z" fill="#f1f4f8" stroke="#dde4ec" stroke-width="1" stroke-linejoin="round"/><path d="M1078.5 558.0 L1076.4 672.0 L1153.0 687.3 Z" fill="#e6ebf2" stroke="#dde4ec" stroke-width="1" stroke-linejoin="round"/><path d="M1078.5 558.0 L1153.0 687.3 L1210.0 607.2 Z" fill="#e6ebf2" stroke="#dde4ec" stroke-width="1" stroke-linejoin="round"/><path d="M1210.0 607.2 L1153.0 687.3 L1265.0 689.0 Z" fill="#e6ebf2" stroke="#dde4ec" stroke-width="1" stroke-linejoin="round"/><path d="M-55.0 677.6 L-110.0 739.8 L0.0 733.1 Z" fill="#e6ebf2" stroke="#c8d2dc" stroke-width="1" stroke-linejoin="round"/><path d="M-55.0 677.6 L0.0 733.1 L50.5 668.1 Z" fill="#e6ebf2" stroke="#c8d2dc" stroke-width="1" stroke-linejoin="round"/><path d="M50.5 668.1 L0.0 733.1 L105.0 756.6 Z" fill="#e6ebf2" stroke="#c8d2dc" stroke-width="1" stroke-linejoin="round"/><path d="M50.5 668.1 L105.0 756.6 L137.7 647.0 Z" fill="#e6ebf2" stroke="#dde4ec" stroke-width="1" stroke-linejoin="round"/><path d="M137.7 647.0 L105.0 756.6 L217.6 778.6 Z" fill="#e6ebf2" stroke="#dde4ec" stroke-width="1" stroke-linejoin="round"/><path d="M137.7 647.0 L217.6 778.6 L263.3 673.2 Z" fill="#e6ebf2" stroke="#dde4ec" stroke-width="1" stroke-linejoin="round"/><path d="M263.3 673.2 L217.6 778.6 L342.5 797.0 Z" fill="#e6ebf2" stroke="#c8d2dc" stroke-width="1" stroke-linejoin="round"/><path d="M263.3 673.2 L342.5 797.0 L365.6 646.7 Z" fill="#e6ebf2" stroke="#dde4ec" stroke-width="1" stroke-linejoin="round"/><path d="M365.6 646.7 L342.5 797.0 L411.1 755.1 Z" fill="#f1f4f8" stroke="#dde4ec" stroke-width="1" stroke-linejoin="round"/><path d="M365.6 646.7 L411.1 755.1 L464.1 676.3 Z" fill="#f1f4f8" stroke="#c8d2dc" stroke-width="1" stroke-linejoin="round"/><path d="M464.1 676.3 L411.1 755.1 L538.4 788.1 Z" fill="#f1f4f8" stroke="#dde4ec" stroke-width="1" stroke-linejoin="round"/><path d="M464.1 676.3 L538.4 788.1 L585.5 696.0 Z" fill="#f1f4f8" stroke="#dde4ec" stroke-width="1" stroke-linejoin="round"/><path d="M585.5 696.0 L538.4 788.1 L641.9 739.8 Z" fill="#e6ebf2" stroke="#c8d2dc" stroke-width="1" stroke-linejoin="round"/><path d="M585.5 696.0 L641.9 739.8 L740.9 635.9 Z" fill="#f1f4f8" stroke="#c8d2dc" stroke-width="1" stroke-linejoin="round"/><path d="M740.9 635.9 L641.9 739.8 L766.3 756.5 Z" fill="#f1f4f8" stroke="#dde4ec" stroke-width="1" stroke-linejoin="round"/><path d="M740.9 635.9 L766.3 756.5 L806.1 679.0 Z" fill="#f1f4f8" stroke="#c8d2dc" stroke-width="1" stroke-linejoin="round"/><path d="M806.1 679.0 L766.3 756.5 L864.1 744.1 Z" fill="#e6ebf2" stroke="#c8d2dc" stroke-width="1" stroke-linejoin="round"/><path d="M806.1 679.0 L864.1 744.1 L914.4 640.4 Z" fill="#f1f4f8" stroke="#dde4ec" stroke-width="1" stroke-linejoin="round"/><path d="M914.4 640.4 L864.1 744.1 L1020.5 758.0 Z" fill="#f1f4f8" stroke="#dde4ec" stroke-width="1" stroke-linejoin="round"/><path d="M914.4 640.4 L1020.5 758.0 L1076.4 672.0 Z" fill="#e6ebf2" stroke="#c8d2dc" stroke-width="1" stroke-linejoin="round"/><path d="M1076.4 672.0 L1020.5 758.0 L1126.0 765.7 Z" fill="#e6ebf2" stroke="#dde4ec" stroke-width="1" stroke-linejoin="round"/><path d="M1076.4 672.0 L1126.0 765.7 L1153.0 687.3 Z" fill="#e6ebf2" stroke="#dde4ec" stroke-width="1" stroke-linejoin="round"/><path d="M1153.0 687.3 L1126.0 765.7 L1210.0 729.7 Z" fill="#e6ebf2" stroke="#dde4ec" stroke-width="1" stroke-linejoin="round"/><path d="M1153.0 687.3 L1210.0 729.7 L1265.0 689.0 Z" fill="#e6ebf2" stroke="#dde4ec" stroke-width="1" stroke-linejoin="round"/><path d="M-110.0 739.8 L-55.0 893.3 L0.0 733.1 Z" fill="#e6ebf2" stroke="#dde4ec" stroke-width="1" stroke-linejoin="round"/><path d="M0.0 733.1 L-55.0 893.3 L79.2 891.1 Z" fill="#e6ebf2" stroke="#c8d2dc" stroke-width="1" stroke-linejoin="round"/><path d="M0.0 733.1 L79.2 891.1 L105.0 756.6 Z" fill="#e6ebf2" stroke="#c8d2dc" stroke-width="1" stroke-linejoin="round"/><path d="M105.0 756.6 L79.2 891.1 L195.7 882.5 Z" fill="#e6ebf2" stroke="#c8d2dc" stroke-width="1" stroke-linejoin="round"/><path d="M105.0 756.6 L195.7 882.5 L217.6 778.6 Z" fill="#e6ebf2" stroke="#c8d2dc" stroke-width="1" stroke-linejoin="round"/><path d="M217.6 778.6 L195.7 882.5 L251.0 856.3 Z" fill="#e6ebf2" stroke="#c8d2dc" stroke-width="1" stroke-linejoin="round"/><path d="M217.6 778.6 L251.0 856.3 L342.5 797.0 Z" fill="#e6ebf2" stroke="#c8d2dc" stroke-width="1" stroke-linejoin="round"/><path d="M342.5 797.0 L251.0 856.3 L364.4 850.2 Z" fill="#e6ebf2" stroke="#c8d2dc" stroke-width="1" stroke-linejoin="round"/><path d="M342.5 797.0 L364.4 850.2 L411.1 755.1 Z" fill="#e6ebf2" stroke="#c8d2dc" stroke-width="1" stroke-linejoin="round"/><path d="M411.1 755.1 L364.4 850.2 L463.2 848.7 Z" fill="#e6ebf2" stroke="#dde4ec" stroke-width="1" stroke-linejoin="round"/><path d="M411.1 755.1 L463.2 848.7 L538.4 788.1 Z" fill="#f1f4f8" stroke="#c8d2dc" stroke-width="1" stroke-linejoin="round"/><path d="M538.4 788.1 L463.2 848.7 L639.9 840.5 Z" fill="#f1f4f8" stroke="#dde4ec" stroke-width="1" stroke-linejoin="round"/><path d="M538.4 788.1 L639.9 840.5 L641.9 739.8 Z" fill="#e6ebf2" stroke="#c8d2dc" stroke-width="1" stroke-linejoin="round"/><path d="M641.9 739.8 L639.9 840.5 L735.5 854.1 Z" fill="#f1f4f8" stroke="#c8d2dc" stroke-width="1" stroke-linejoin="round"/><path d="M641.9 739.8 L735.5 854.1 L766.3 756.5 Z" fill="#f1f4f8" stroke="#c8d2dc" stroke-width="1" stroke-linejoin="round"/><path d="M766.3 756.5 L735.5 854.1 L819.5 890.3 Z" fill="#e6ebf2" stroke="#c8d2dc" stroke-width="1" stroke-linejoin="round"/><path d="M766.3 756.5 L819.5 890.3 L864.1 744.1 Z" fill="#e6ebf2" stroke="#c8d2dc" stroke-width="1" stroke-linejoin="round"/><path d="M864.1 744.1 L819.5 890.3 L970.7 861.4 Z" fill="#e6ebf2" stroke="#dde4ec" stroke-width="1" stroke-linejoin="round"/><path d="M864.1 744.1 L970.7 861.4 L1020.5 758.0 Z" fill="#e6ebf2" stroke="#c8d2dc" stroke-width="1" stroke-linejoin="round"/><path d="M1020.5 758.0 L970.7 861.4 L1060.7 832.5 Z" fill="#e6ebf2" stroke="#c8d2dc" stroke-width="1" stroke-linejoin="round"/><path d="M1020.5 758.0 L1060.7 832.5 L1126.0 765.7 Z" fill="#e6ebf2" stroke="#dde4ec" stroke-width="1" stroke-linejoin="round"/><path d="M1126.0 765.7 L1060.7 832.5 L1140.4 891.1 Z" fill="#e6ebf2" stroke="#c8d2dc" stroke-width="1" stroke-linejoin="round"/><path d="M1126.0 765.7 L1140.4 891.1 L1210.0 729.7 Z" fill="#e6ebf2" stroke="#c8d2dc" stroke-width="1" stroke-linejoin="round"/><path d="M1210.0 729.7 L1140.4 891.1 L1265.0 863.1 Z" fill="#e6ebf2" stroke="#c8d2dc" stroke-width="1" stroke-linejoin="round"/><circle cx="120.0" cy="0.0" r="1.6" fill="#aab8c5" fill-opacity="0.55"/><circle cx="313.8" cy="0.0" r="1.6" fill="#aab8c5" fill-opacity="0.55"/><circle cx="420.1" cy="0.0" r="1.6" fill="#aab8c5" fill-opacity="0.55"/><circle cx="850.3" cy="0.0" r="1.6" fill="#aab8c5" fill-opacity="0.55"/><circle cx="0.0" cy="194.3" r="1.6" fill="#aab8c5" fill-opacity="0.55"/><circle cx="133.7" cy="199.1" r="1.6" fill="#aab8c5" fill-opacity="0.55"/><circle cx="246.0" cy="196.1" r="1.6" fill="#aab8c5" fill-opacity="0.55"/><circle cx="344.7" cy="157.8" r="1.6" fill="#aab8c5" fill-opacity="0.55"/><circle cx="1074.8" cy="282.8" r="1.6" fill="#aab8c5" fill-opacity="0.55"/><circle cx="1138.1" cy="267.5" r="1.6" fill="#aab8c5" fill-opacity="0.55"/><circle cx="199.8" cy="416.9" r="1.6" fill="#aab8c5" fill-opacity="0.55"/><circle cx="882.1" cy="415.0" r="1.6" fill="#aab8c5" fill-opacity="0.55"/><circle cx="1016.0" cy="345.9" r="1.6" fill="#aab8c5" fill-opacity="0.55"/><circle cx="65.1" cy="448.3" r="1.6" fill="#aab8c5" fill-opacity="0.55"/><circle cx="937.8" cy="496.4" r="1.6" fill="#aab8c5" fill-opacity="0.55"/><circle cx="409.0" cy="590.3" r="1.6" fill="#aab8c5" fill-opacity="0.55"/><circle cx="1020.5" cy="758.0" r="1.6" fill="#aab8c5" fill-opacity="0.55"/><circle cx="79.2" cy="891.1" r="1.6" fill="#aab8c5" fill-opacity="0.55"/><circle cx="364.4" cy="850.2" r="1.6" fill="#aab8c5" fill-opacity="0.55"/><circle cx="819.5" cy="890.3" r="1.6" fill="#aab8c5" fill-opacity="0.55"/></svg>